<mxfile host="app.diagrams.net" agent="Mozilla/5.0 (Windows NT 10.0; Win64; x64; rv:130.0) Gecko/20100101 Firefox/130.0" version="24.7.17">
  <diagram name="Page-1" id="VevLc5addrDIGXF4oQ7c">
    <mxGraphModel dx="1272" dy="669" grid="1" gridSize="10" guides="1" tooltips="1" connect="1" arrows="1" fold="1" page="1" pageScale="1" pageWidth="850" pageHeight="1100" math="0" shadow="0">
      <root>
        <mxCell id="0" />
        <mxCell id="1" parent="0" />
        <mxCell id="Uu2_LYkz_IEdC3YA4C9A-1" value="" style="rounded=0;whiteSpace=wrap;html=1;" vertex="1" parent="1">
          <mxGeometry x="385" y="310" width="20" height="60" as="geometry" />
        </mxCell>
        <mxCell id="Uu2_LYkz_IEdC3YA4C9A-2" value="" style="rounded=0;whiteSpace=wrap;html=1;" vertex="1" parent="1">
          <mxGeometry x="170" y="180" width="20" height="490" as="geometry" />
        </mxCell>
        <mxCell id="Uu2_LYkz_IEdC3YA4C9A-3" value="System" style="rounded=0;whiteSpace=wrap;html=1;" vertex="1" parent="1">
          <mxGeometry x="110" y="110" width="150" height="30" as="geometry" />
        </mxCell>
        <mxCell id="Uu2_LYkz_IEdC3YA4C9A-4" value="" style="endArrow=none;dashed=1;html=1;dashPattern=1 3;strokeWidth=2;rounded=0;entryX=0.5;entryY=1;entryDx=0;entryDy=0;" edge="1" parent="1" source="Uu2_LYkz_IEdC3YA4C9A-2" target="Uu2_LYkz_IEdC3YA4C9A-3">
          <mxGeometry width="50" height="50" relative="1" as="geometry">
            <mxPoint x="185" y="600" as="sourcePoint" />
            <mxPoint x="450" y="280" as="targetPoint" />
          </mxGeometry>
        </mxCell>
        <mxCell id="Uu2_LYkz_IEdC3YA4C9A-5" value="&lt;font style=&quot;font-size: 19px;&quot;&gt;\REPORT-MANAGMENT&lt;br&gt;&lt;/font&gt;" style="shape=note;whiteSpace=wrap;html=1;backgroundOutline=1;darkOpacity=0.05;" vertex="1" parent="1">
          <mxGeometry x="20" y="10" width="200" height="80" as="geometry" />
        </mxCell>
        <mxCell id="Uu2_LYkz_IEdC3YA4C9A-6" value="" style="endArrow=classic;html=1;rounded=0;" edge="1" parent="1">
          <mxGeometry width="50" height="50" relative="1" as="geometry">
            <mxPoint x="40" y="160" as="sourcePoint" />
            <mxPoint x="180" y="160" as="targetPoint" />
          </mxGeometry>
        </mxCell>
        <mxCell id="Uu2_LYkz_IEdC3YA4C9A-7" value="Admin input" style="edgeLabel;html=1;align=center;verticalAlign=middle;resizable=0;points=[];" vertex="1" connectable="0" parent="Uu2_LYkz_IEdC3YA4C9A-6">
          <mxGeometry x="-0.6118" y="-2" relative="1" as="geometry">
            <mxPoint x="23" y="-12" as="offset" />
          </mxGeometry>
        </mxCell>
        <mxCell id="Uu2_LYkz_IEdC3YA4C9A-8" value="" style="endArrow=classic;html=1;rounded=0;" edge="1" parent="1">
          <mxGeometry width="50" height="50" relative="1" as="geometry">
            <mxPoint x="190" y="190" as="sourcePoint" />
            <mxPoint x="190" y="230" as="targetPoint" />
            <Array as="points">
              <mxPoint x="240" y="190" />
              <mxPoint x="240" y="230" />
            </Array>
          </mxGeometry>
        </mxCell>
        <mxCell id="Uu2_LYkz_IEdC3YA4C9A-9" value="createReports()" style="edgeLabel;html=1;align=center;verticalAlign=middle;resizable=0;points=[];" vertex="1" connectable="0" parent="Uu2_LYkz_IEdC3YA4C9A-8">
          <mxGeometry x="-0.6118" y="-2" relative="1" as="geometry">
            <mxPoint x="31" y="-12" as="offset" />
          </mxGeometry>
        </mxCell>
        <mxCell id="Uu2_LYkz_IEdC3YA4C9A-10" value="" style="endArrow=classic;html=1;rounded=0;" edge="1" parent="1">
          <mxGeometry width="50" height="50" relative="1" as="geometry">
            <mxPoint x="190" y="390" as="sourcePoint" />
            <mxPoint x="600" y="390" as="targetPoint" />
          </mxGeometry>
        </mxCell>
        <mxCell id="Uu2_LYkz_IEdC3YA4C9A-11" value="returnListOfReport()" style="edgeLabel;html=1;align=center;verticalAlign=middle;resizable=0;points=[];" vertex="1" connectable="0" parent="Uu2_LYkz_IEdC3YA4C9A-10">
          <mxGeometry x="-0.6118" y="-2" relative="1" as="geometry">
            <mxPoint x="101" y="-12" as="offset" />
          </mxGeometry>
        </mxCell>
        <mxCell id="Uu2_LYkz_IEdC3YA4C9A-12" value="" style="endArrow=none;html=1;rounded=0;dashed=1;dashPattern=8 8;startArrow=classic;startFill=1;endFill=0;" edge="1" parent="1">
          <mxGeometry width="50" height="50" relative="1" as="geometry">
            <mxPoint x="190" y="420" as="sourcePoint" />
            <mxPoint x="600" y="420" as="targetPoint" />
          </mxGeometry>
        </mxCell>
        <mxCell id="Uu2_LYkz_IEdC3YA4C9A-13" value="return in jason" style="edgeLabel;html=1;align=center;verticalAlign=middle;resizable=0;points=[];" vertex="1" connectable="0" parent="Uu2_LYkz_IEdC3YA4C9A-12">
          <mxGeometry x="0.2972" y="2" relative="1" as="geometry">
            <mxPoint x="-71" y="-8" as="offset" />
          </mxGeometry>
        </mxCell>
        <mxCell id="Uu2_LYkz_IEdC3YA4C9A-15" value="&lt;font style=&quot;font-size: 14px;&quot;&gt;ReportManager&lt;/font&gt;" style="rounded=0;whiteSpace=wrap;html=1;" vertex="1" parent="1">
          <mxGeometry x="540" y="110" width="150" height="30" as="geometry" />
        </mxCell>
        <mxCell id="Uu2_LYkz_IEdC3YA4C9A-16" value="" style="endArrow=none;dashed=1;html=1;dashPattern=1 3;strokeWidth=2;rounded=0;entryX=0.5;entryY=1;entryDx=0;entryDy=0;" edge="1" parent="1" source="Uu2_LYkz_IEdC3YA4C9A-18" target="Uu2_LYkz_IEdC3YA4C9A-15">
          <mxGeometry width="50" height="50" relative="1" as="geometry">
            <mxPoint x="615" y="650" as="sourcePoint" />
            <mxPoint x="610" y="250" as="targetPoint" />
          </mxGeometry>
        </mxCell>
        <mxCell id="Uu2_LYkz_IEdC3YA4C9A-17" value="" style="endArrow=none;dashed=1;html=1;dashPattern=1 3;strokeWidth=2;rounded=0;entryX=0.5;entryY=1;entryDx=0;entryDy=0;" edge="1" parent="1" target="Uu2_LYkz_IEdC3YA4C9A-18" source="Uu2_LYkz_IEdC3YA4C9A-63">
          <mxGeometry width="50" height="50" relative="1" as="geometry">
            <mxPoint x="620" y="790" as="sourcePoint" />
            <mxPoint x="615" y="140" as="targetPoint" />
          </mxGeometry>
        </mxCell>
        <mxCell id="Uu2_LYkz_IEdC3YA4C9A-18" value="" style="rounded=0;whiteSpace=wrap;html=1;" vertex="1" parent="1">
          <mxGeometry x="605" y="380" width="20" height="120" as="geometry" />
        </mxCell>
        <mxCell id="Uu2_LYkz_IEdC3YA4C9A-19" value="" style="endArrow=classic;html=1;rounded=0;fillColor=#f8cecc;strokeColor=#b85450;entryX=1;entryY=0.237;entryDx=0;entryDy=0;entryPerimeter=0;" edge="1" parent="1" target="Uu2_LYkz_IEdC3YA4C9A-2">
          <mxGeometry width="50" height="50" relative="1" as="geometry">
            <mxPoint x="190" y="255" as="sourcePoint" />
            <mxPoint x="180" y="300" as="targetPoint" />
            <Array as="points">
              <mxPoint x="240" y="255" />
              <mxPoint x="240" y="295" />
            </Array>
          </mxGeometry>
        </mxCell>
        <mxCell id="Uu2_LYkz_IEdC3YA4C9A-20" value="token_required()" style="edgeLabel;html=1;align=center;verticalAlign=middle;resizable=0;points=[];" vertex="1" connectable="0" parent="Uu2_LYkz_IEdC3YA4C9A-19">
          <mxGeometry x="-0.6118" y="-2" relative="1" as="geometry">
            <mxPoint x="21" y="-12" as="offset" />
          </mxGeometry>
        </mxCell>
        <mxCell id="Uu2_LYkz_IEdC3YA4C9A-21" value="Permission Manager" style="rounded=0;whiteSpace=wrap;html=1;" vertex="1" parent="1">
          <mxGeometry x="320" y="110" width="150" height="30" as="geometry" />
        </mxCell>
        <mxCell id="Uu2_LYkz_IEdC3YA4C9A-22" value="" style="endArrow=none;dashed=1;html=1;dashPattern=1 3;strokeWidth=2;rounded=0;entryX=0.5;entryY=1;entryDx=0;entryDy=0;" edge="1" parent="1" source="Uu2_LYkz_IEdC3YA4C9A-1" target="Uu2_LYkz_IEdC3YA4C9A-21">
          <mxGeometry width="50" height="50" relative="1" as="geometry">
            <mxPoint x="400" y="600" as="sourcePoint" />
            <mxPoint x="390" y="250" as="targetPoint" />
          </mxGeometry>
        </mxCell>
        <mxCell id="Uu2_LYkz_IEdC3YA4C9A-23" value="" style="endArrow=classic;html=1;rounded=0;fillColor=#f8cecc;strokeColor=#b85450;" edge="1" parent="1">
          <mxGeometry width="50" height="50" relative="1" as="geometry">
            <mxPoint x="190" y="330" as="sourcePoint" />
            <mxPoint x="390" y="330" as="targetPoint" />
          </mxGeometry>
        </mxCell>
        <mxCell id="Uu2_LYkz_IEdC3YA4C9A-24" value="checkPermissions()" style="edgeLabel;html=1;align=center;verticalAlign=middle;resizable=0;points=[];" vertex="1" connectable="0" parent="Uu2_LYkz_IEdC3YA4C9A-23">
          <mxGeometry x="-0.6118" y="-2" relative="1" as="geometry">
            <mxPoint x="53" y="-12" as="offset" />
          </mxGeometry>
        </mxCell>
        <mxCell id="Uu2_LYkz_IEdC3YA4C9A-25" value="" style="endArrow=none;html=1;rounded=0;dashed=1;dashPattern=8 8;startArrow=classic;startFill=1;endFill=0;fillColor=#f8cecc;strokeColor=#b85450;" edge="1" parent="1">
          <mxGeometry width="50" height="50" relative="1" as="geometry">
            <mxPoint x="190" y="360" as="sourcePoint" />
            <mxPoint x="390" y="360" as="targetPoint" />
          </mxGeometry>
        </mxCell>
        <mxCell id="Uu2_LYkz_IEdC3YA4C9A-26" value="conformation" style="edgeLabel;html=1;align=center;verticalAlign=middle;resizable=0;points=[];" vertex="1" connectable="0" parent="Uu2_LYkz_IEdC3YA4C9A-25">
          <mxGeometry x="0.2972" y="2" relative="1" as="geometry">
            <mxPoint x="-33" y="-8" as="offset" />
          </mxGeometry>
        </mxCell>
        <mxCell id="Uu2_LYkz_IEdC3YA4C9A-27" value="" style="endArrow=none;dashed=1;html=1;dashPattern=1 3;strokeWidth=2;rounded=0;entryX=0.5;entryY=1;entryDx=0;entryDy=0;exitX=0.5;exitY=1;exitDx=0;exitDy=0;" edge="1" parent="1" source="Uu2_LYkz_IEdC3YA4C9A-1" target="Uu2_LYkz_IEdC3YA4C9A-1">
          <mxGeometry width="50" height="50" relative="1" as="geometry">
            <mxPoint x="395" y="470" as="sourcePoint" />
            <mxPoint x="395" y="140" as="targetPoint" />
          </mxGeometry>
        </mxCell>
        <mxCell id="Uu2_LYkz_IEdC3YA4C9A-42" value="&lt;font style=&quot;font-size: 15px;&quot;&gt;EmailManager&lt;/font&gt;" style="rounded=0;whiteSpace=wrap;html=1;" vertex="1" parent="1">
          <mxGeometry x="780" y="110" width="150" height="30" as="geometry" />
        </mxCell>
        <mxCell id="Uu2_LYkz_IEdC3YA4C9A-43" value="" style="endArrow=none;dashed=1;html=1;dashPattern=1 3;strokeWidth=2;rounded=0;entryX=0.5;entryY=1;entryDx=0;entryDy=0;" edge="1" parent="1" target="Uu2_LYkz_IEdC3YA4C9A-42">
          <mxGeometry width="50" height="50" relative="1" as="geometry">
            <mxPoint x="850" y="800" as="sourcePoint" />
            <mxPoint x="850" y="250" as="targetPoint" />
          </mxGeometry>
        </mxCell>
        <mxCell id="Uu2_LYkz_IEdC3YA4C9A-47" value="" style="endArrow=none;dashed=1;html=1;dashPattern=1 3;strokeWidth=2;rounded=0;" edge="1" parent="1">
          <mxGeometry width="50" height="50" relative="1" as="geometry">
            <mxPoint x="180" y="670" as="sourcePoint" />
            <mxPoint x="180" y="770" as="targetPoint" />
          </mxGeometry>
        </mxCell>
        <mxCell id="Uu2_LYkz_IEdC3YA4C9A-49" value="" style="endArrow=classic;html=1;rounded=0;" edge="1" parent="1">
          <mxGeometry width="50" height="50" relative="1" as="geometry">
            <mxPoint x="190" y="460" as="sourcePoint" />
            <mxPoint x="600" y="460" as="targetPoint" />
          </mxGeometry>
        </mxCell>
        <mxCell id="Uu2_LYkz_IEdC3YA4C9A-50" value="generateReport()" style="edgeLabel;html=1;align=center;verticalAlign=middle;resizable=0;points=[];" vertex="1" connectable="0" parent="Uu2_LYkz_IEdC3YA4C9A-49">
          <mxGeometry x="-0.6118" y="-2" relative="1" as="geometry">
            <mxPoint x="101" y="-12" as="offset" />
          </mxGeometry>
        </mxCell>
        <mxCell id="Uu2_LYkz_IEdC3YA4C9A-51" value="sendRepor()" style="text;whiteSpace=wrap;html=1;" vertex="1" parent="1">
          <mxGeometry x="690" y="460" width="110" height="40" as="geometry" />
        </mxCell>
        <mxCell id="Uu2_LYkz_IEdC3YA4C9A-52" value="" style="endArrow=classic;html=1;rounded=0;" edge="1" parent="1">
          <mxGeometry width="50" height="50" relative="1" as="geometry">
            <mxPoint x="630" y="490" as="sourcePoint" />
            <mxPoint x="850" y="490" as="targetPoint" />
          </mxGeometry>
        </mxCell>
        <mxCell id="Uu2_LYkz_IEdC3YA4C9A-54" value="" style="endArrow=classic;html=1;rounded=0;" edge="1" parent="1">
          <mxGeometry width="50" height="50" relative="1" as="geometry">
            <mxPoint x="190" y="520" as="sourcePoint" />
            <mxPoint x="190" y="560" as="targetPoint" />
            <Array as="points">
              <mxPoint x="240" y="520" />
              <mxPoint x="240" y="560" />
            </Array>
          </mxGeometry>
        </mxCell>
        <mxCell id="Uu2_LYkz_IEdC3YA4C9A-55" value="deleteReport()" style="edgeLabel;html=1;align=center;verticalAlign=middle;resizable=0;points=[];" vertex="1" connectable="0" parent="Uu2_LYkz_IEdC3YA4C9A-54">
          <mxGeometry x="-0.6118" y="-2" relative="1" as="geometry">
            <mxPoint x="31" y="-12" as="offset" />
          </mxGeometry>
        </mxCell>
        <mxCell id="Uu2_LYkz_IEdC3YA4C9A-56" value="" style="endArrow=classic;html=1;rounded=0;" edge="1" parent="1">
          <mxGeometry width="50" height="50" relative="1" as="geometry">
            <mxPoint x="195" y="590" as="sourcePoint" />
            <mxPoint x="605" y="590" as="targetPoint" />
          </mxGeometry>
        </mxCell>
        <mxCell id="Uu2_LYkz_IEdC3YA4C9A-57" value="returnListOfReport()" style="edgeLabel;html=1;align=center;verticalAlign=middle;resizable=0;points=[];" vertex="1" connectable="0" parent="Uu2_LYkz_IEdC3YA4C9A-56">
          <mxGeometry x="-0.6118" y="-2" relative="1" as="geometry">
            <mxPoint x="101" y="-12" as="offset" />
          </mxGeometry>
        </mxCell>
        <mxCell id="Uu2_LYkz_IEdC3YA4C9A-58" value="" style="endArrow=none;html=1;rounded=0;dashed=1;dashPattern=8 8;startArrow=classic;startFill=1;endFill=0;" edge="1" parent="1">
          <mxGeometry width="50" height="50" relative="1" as="geometry">
            <mxPoint x="195" y="630" as="sourcePoint" />
            <mxPoint x="605" y="630" as="targetPoint" />
          </mxGeometry>
        </mxCell>
        <mxCell id="Uu2_LYkz_IEdC3YA4C9A-59" value="return in jason" style="edgeLabel;html=1;align=center;verticalAlign=middle;resizable=0;points=[];" vertex="1" connectable="0" parent="Uu2_LYkz_IEdC3YA4C9A-58">
          <mxGeometry x="0.2972" y="2" relative="1" as="geometry">
            <mxPoint x="-71" y="-8" as="offset" />
          </mxGeometry>
        </mxCell>
        <mxCell id="Uu2_LYkz_IEdC3YA4C9A-60" value="" style="endArrow=classic;html=1;rounded=0;" edge="1" parent="1">
          <mxGeometry width="50" height="50" relative="1" as="geometry">
            <mxPoint x="195" y="670" as="sourcePoint" />
            <mxPoint x="605" y="670" as="targetPoint" />
          </mxGeometry>
        </mxCell>
        <mxCell id="Uu2_LYkz_IEdC3YA4C9A-61" value="removeReport()" style="edgeLabel;html=1;align=center;verticalAlign=middle;resizable=0;points=[];" vertex="1" connectable="0" parent="Uu2_LYkz_IEdC3YA4C9A-60">
          <mxGeometry x="-0.6118" y="-2" relative="1" as="geometry">
            <mxPoint x="101" y="-12" as="offset" />
          </mxGeometry>
        </mxCell>
        <mxCell id="Uu2_LYkz_IEdC3YA4C9A-65" value="" style="endArrow=none;dashed=1;html=1;dashPattern=1 3;strokeWidth=2;rounded=0;entryX=0.5;entryY=1;entryDx=0;entryDy=0;" edge="1" parent="1" target="Uu2_LYkz_IEdC3YA4C9A-63">
          <mxGeometry width="50" height="50" relative="1" as="geometry">
            <mxPoint x="620" y="790" as="sourcePoint" />
            <mxPoint x="615" y="500" as="targetPoint" />
          </mxGeometry>
        </mxCell>
        <mxCell id="Uu2_LYkz_IEdC3YA4C9A-63" value="" style="rounded=0;whiteSpace=wrap;html=1;" vertex="1" parent="1">
          <mxGeometry x="605" y="570" width="20" height="120" as="geometry" />
        </mxCell>
      </root>
    </mxGraphModel>
  </diagram>
</mxfile>
